<mxfile host="app.diagrams.net" modified="2022-06-14T09:06:59.175Z" agent="5.0 (Macintosh; Intel Mac OS X 10_15_7) AppleWebKit/537.36 (KHTML, like Gecko) Chrome/102.0.5005.61 Safari/537.36" etag="lK2nJqezxMkkRW1Gi9ij" version="19.0.3" type="github">
  <diagram id="j7PzHSOK4SGS7GpZXWp-" name="Page-1">
    <mxGraphModel dx="1426" dy="794" grid="1" gridSize="10" guides="1" tooltips="1" connect="1" arrows="1" fold="1" page="1" pageScale="1" pageWidth="850" pageHeight="1100" math="0" shadow="0">
      <root>
        <mxCell id="0" />
        <mxCell id="1" parent="0" />
        <mxCell id="3Xd9eUzj0_9hOQsiWZMp-1" value="" style="shape=image;verticalLabelPosition=bottom;labelBackgroundColor=default;verticalAlign=top;aspect=fixed;imageAspect=0;image=https://img-blog.csdnimg.cn/1500192a88244f2cbca6457b59679c23.png;strokeWidth=1;" parent="1" vertex="1">
          <mxGeometry x="279" y="120" width="292" height="515" as="geometry" />
        </mxCell>
        <mxCell id="3Xd9eUzj0_9hOQsiWZMp-2" value="" style="rounded=1;whiteSpace=wrap;html=1;strokeColor=#FF6666;strokeWidth=2;fillColor=none;" parent="1" vertex="1">
          <mxGeometry x="340" y="290" width="150" height="70" as="geometry" />
        </mxCell>
        <mxCell id="3Xd9eUzj0_9hOQsiWZMp-3" value="" style="rounded=1;whiteSpace=wrap;html=1;strokeColor=#FF6666;strokeWidth=2;fillColor=none;" parent="1" vertex="1">
          <mxGeometry x="380" y="380" width="150" height="70" as="geometry" />
        </mxCell>
        <mxCell id="3Xd9eUzj0_9hOQsiWZMp-4" value="" style="rounded=1;whiteSpace=wrap;html=1;strokeColor=#FF6666;strokeWidth=2;fillColor=none;" parent="1" vertex="1">
          <mxGeometry x="340" y="460" width="110" height="80" as="geometry" />
        </mxCell>
        <mxCell id="3Xd9eUzj0_9hOQsiWZMp-5" value="" style="rounded=1;whiteSpace=wrap;html=1;strokeColor=#FF6666;strokeWidth=2;fillColor=none;" parent="1" vertex="1">
          <mxGeometry x="470" y="460" width="110" height="80" as="geometry" />
        </mxCell>
      </root>
    </mxGraphModel>
  </diagram>
</mxfile>
